HIERARCHY
ROOT root
{
	OFFSET	0	13.1	24.9
	CHANNELS 6  Xposition Yposition Zposition Xrotation Yrotation Zrotation
	JOINT spine_1
	{
		OFFSET	0	9.99999	0
		CHANNELS 3  Xrotation Yrotation Zrotation
		JOINT spine_2
		{
			OFFSET	0	112	-10
			CHANNELS 3  Xrotation Yrotation Zrotation
			JOINT spine_3
			{
				OFFSET	0	206.5	19.3
				CHANNELS 3  Xrotation Yrotation Zrotation
				JOINT spine_4
				{
					OFFSET	0	110.4	14.6
					CHANNELS 3  Xrotation Yrotation Zrotation
					JOINT neck_1
					{
						OFFSET	0	71.8	-50.3
						CHANNELS 3  Xrotation Yrotation Zrotation
						JOINT neck_2
						{
							OFFSET	0	86.2	-25.8
							CHANNELS 3  Xrotation Yrotation Zrotation
							JOINT head_ee
							{
								OFFSET	0	179.8	-8.7
								CHANNELS 3  Xrotation Yrotation Zrotation
								End Site
								{
									OFFSET	1	0	0
								}
							}
						}
					}
					JOINT left_clavicle
					{
						OFFSET	-43.2	22.4	-70.8
						CHANNELS 3  Xrotation Yrotation Zrotation
						JOINT left_shoulder
						{
							OFFSET	-93.9	-5.79999	48.7
							CHANNELS 3  Xrotation Yrotation Zrotation
							JOINT left_elbow
							{
								OFFSET	-291.4	-30.8	15.2
								CHANNELS 3  Xrotation Yrotation Zrotation
								JOINT left_lowarm_twist
								{
									OFFSET	-110.7	-3.89999	13.6
									CHANNELS 3  Xrotation Yrotation Zrotation
									JOINT left_hand
									{
										OFFSET	-110.7	-3.89999	13.6
										CHANNELS 3  Xrotation Yrotation Zrotation
										JOINT left_ee
										{
											OFFSET	-80.8	-5.10001	12.1
											CHANNELS 3  Xrotation Yrotation Zrotation
											End Site
											{
												OFFSET	1	0	0
											}
										}
									}
								}
							}
						}
					}
					JOINT right_clavicle
					{
						OFFSET	43.2	22.4	-70.8
						CHANNELS 3  Xrotation Yrotation Zrotation
						JOINT right_shoulder
						{
							OFFSET	93.9	-5.79999	48.7
							CHANNELS 3  Xrotation Yrotation Zrotation
							JOINT right_elbow
							{
								OFFSET	291.4	-30.8	15.2
								CHANNELS 3  Xrotation Yrotation Zrotation
								JOINT right_lowarm_twist
								{
									OFFSET	110.7	-3.89999	13.6
									CHANNELS 3  Xrotation Yrotation Zrotation
									JOINT right_hand
									{
										OFFSET	110.7	-3.89999	13.6
										CHANNELS 3  Xrotation Yrotation Zrotation
										JOINT right_ee
										{
											OFFSET	80.8	-5.10001	12.1
											CHANNELS 3  Xrotation Yrotation Zrotation
											End Site
											{
												OFFSET	1	0	0
											}
										}
									}
								}
							}
						}
					}
				}
			}
		}
	}
	JOINT left_hip
	{
		OFFSET	-82.8	-127.5	0.300001
		CHANNELS 3  Xrotation Yrotation Zrotation
		JOINT left_knee
		{
			OFFSET	-28.2	-396.7	2.2
			CHANNELS 3  Xrotation Yrotation Zrotation
			JOINT left_ankle
			{
				OFFSET	-11.7	-411.3	35.4
				CHANNELS 3  Xrotation Yrotation Zrotation
				JOINT left_toes
				{
					OFFSET	0	-60	-88.6
					CHANNELS 3  Xrotation Yrotation Zrotation
					JOINT left_foot_ee
					{
						OFFSET	-22.5	-16.5	-42.2
						CHANNELS 3  Xrotation Yrotation Zrotation
						End Site
						{
							OFFSET	1	0	0
						}
					}
				}
			}
		}
	}
	JOINT right_hip
	{
		OFFSET	82.8	-127.5	0.300001
		CHANNELS 3  Xrotation Yrotation Zrotation
		JOINT right_knee
		{
			OFFSET	28.2	-396.7	2.2
			CHANNELS 3  Xrotation Yrotation Zrotation
			JOINT right_ankle
			{
				OFFSET	11.7	-411.3	35.4
				CHANNELS 3  Xrotation Yrotation Zrotation
				JOINT right_toes
				{
					OFFSET	0	-60	-88.6
					CHANNELS 3  Xrotation Yrotation Zrotation
					JOINT right_foot_ee
					{
						OFFSET	22.5	-16.5	-42.2
						CHANNELS 3  Xrotation Yrotation Zrotation
						End Site
						{
							OFFSET	1	0	0
						}
					}
				}
			}
		}
	}
}
MOTION
Frames: 11
Frame Time: 0.02
1125.75888549 736.735 -1582.54671481 167.462153576 66.2252190304 -152.191117631 -0.668767 -1.13189 -5.80241 -0.65037 -0.761025 -5.86239 -0.55868 0.546079 -5.88622 -0.606783 -0.388727 -5.89865 -12.4371 -7.62886 -3.63222 -12.4869 -12.1811 -5.68456 -0.0 0.0 -0.0 4.94655 -28.3339 7.50023 0.765923 -32.3639 80.4309 0.40554 -11.3593 0.040333 -12.2352 -0.588063 1.44666 0.420559 0.770679 3.12867 -0.0 0.0 -0.0 -4.14911 -3.70627 7.33855 0.558387 16.5987 -66.7435 0.956907 25.3616 -0.215316 54.2912 1.29286 6.55711 -4.35357 -9.79735 24.6869 0.0 0.0 0.0 0.405986 -38.649 -18.0434 -36.9104 -0.281998 5.56089 42.7678 24.5853 -5.4114 34.2267 -0.0 -0.0 -0.0 0.0 -0.0 -3.89198 -18.5398 -23.8493 -18.9939 -0.306254 -2.88536 33.9766 20.6482 4.79191 -37.3845 0.0 0.0 0.0 0.0 0.0 
1123.01107064 737.044 -1584.43065174 169.293388413 66.3870824671 -154.259562413 -0.548194 -1.02889 -5.83548 -0.529501 -0.656141 -5.88887 -0.449038 0.643482 -5.89026 -0.497299 -0.293169 -5.91795 -12.3401 -8.58178 -4.24468 -12.3961 -13.5927 -6.5364 -0.0 0.0 -0.0 4.54679 -28.2195 6.64387 0.86665 -32.5442 81.552 0.314276 -8.84913 0.0243178 -12.2153 -0.586857 1.44441 0.457018 1.27036 3.57803 -0.0 0.0 -0.0 -4.16197 -3.05268 7.49552 2.05533 17.0208 -64.8303 1.01997 26.8051 -0.243044 53.0708 1.19731 6.43335 -4.62378 -9.40375 26.8844 0.0 0.0 0.0 4.76918 -33.9359 -17.8881 -34.246 -0.141841 5.1763 42.8111 23.9229 -5.3932 35.0871 -0.0 -0.0 -0.0 0.0 -0.0 -3.5274 -19.0858 -23.8543 -17.2783 -0.31811 -2.62241 33.2713 21.891 4.76883 -37.8647 0.0 0.0 0.0 0.0 0.0 
1118.30354528 737.921 -1582.31817415 169.801379082 66.9669041594 -154.946537077 -0.627094 -1.0163 -5.85798 -0.608244 -0.642155 -5.91053 -0.528514 0.670172 -5.90743 -0.577074 -0.269507 -5.93909 -11.6822 -9.28624 -4.10865 -11.749 -14.9373 -6.52948 -0.0 0.0 -0.0 4.48937 -28.6851 6.46891 0.401202 -32.8062 83.3792 0.232809 -6.57884 0.0133806 -12.2254 -0.587468 1.44555 0.521655 2.37027 4.45955 -0.0 0.0 -0.0 -4.1588 -3.2601 7.44751 3.356 17.2418 -63.0178 1.10786 28.7572 -0.284017 51.0461 1.04471 6.2237 -4.56475 -7.47498 27.6742 0.0 0.0 0.0 7.18396 -28.8951 -16.9679 -32.695 -0.0685587 4.94963 42.8741 22.8767 -5.36568 36.0106 -0.0 -0.0 -0.0 0.0 -0.0 -3.54538 -19.4315 -23.7945 -15.2779 -0.321986 -2.31552 33.2185 22.0594 4.77042 -38.1617 0.0 0.0 0.0 0.0 0.0 
1108.7532895 739.194 -1562.30337724 172.796343872 63.9049116149 -157.891273951 -0.315954 -1.00214 -5.83513 -0.297244 -0.629466 -5.88683 -0.220835 0.645692 -5.88508 -0.269012 -0.290172 -5.91318 -10.5916 -9.568 -4.86617 -10.6137 -14.8252 -7.1951 -0.0 0.0 -0.0 4.5961 -27.3682 6.84183 -0.812512 -32.4335 83.8882 0.184571 -5.22422 0.00842039 -11.8372 -0.564121 1.4017 0.794809 3.47379 6.72331 -0.0 0.0 -0.0 -4.52183 -3.41912 8.10902 3.31987 16.4466 -61.0077 1.17121 30.1206 -0.315158 49.2926 0.918637 6.03793 -4.60969 -6.37055 28.7016 0.0 0.0 0.0 9.53857 -25.4778 -16.2217 -32.1318 -0.0434743 4.86686 42.0293 18.9858 -5.18774 36.7997 -0.0 -0.0 -0.0 0.0 -0.0 -4.14325 -19.3204 -22.9529 -14.6799 -0.321064 -2.22378 33.5055 22.3644 4.81496 -38.8542 0.0 0.0 0.0 0.0 0.0 
1096.01817617 736.506 -1549.51924572 173.457200158 61.4457888865 -158.379171467 -0.225659 -0.970395 -5.92605 -0.20633 -0.592029 -5.97554 -0.133106 0.69238 -5.96479 -0.182625 -0.256585 -5.99923 -11.6971 -10.9611 -5.69761 -11.7564 -17.0926 -8.52152 -0.0 0.0 -0.0 4.34072 -28.3371 6.18368 -1.82636 -33.1318 86.0098 0.196425 -5.55772 0.00953411 -12.4626 -0.601877 1.47226 0.606315 3.72374 5.57142 -0.0 0.0 -0.0 -4.8287 -3.56032 8.66681 3.95052 16.3681 -59.925 1.21146 30.9676 -0.335609 49.4227 0.92779 6.05183 -4.66792 -6.46429 29.0816 0.0 0.0 0.0 18.5934 -23.659 -11.4037 -30.6509 0.0185865 4.64808 36.8106 24.6461 -4.8405 36.0919 -0.0 -0.0 -0.0 0.0 -0.0 -6.57235 -19.021 -23.8633 -13.9342 -0.318574 -2.1094 34.7034 21.2885 4.89511 -38.3225 0.0 0.0 0.0 0.0 0.0 
1075.28423736 731.141 -1529.93337522 174.43795606 60.2586455993 -159.133763934 0.259018 -0.744688 -6.13584 0.279877 -0.353499 -6.17062 0.32678 0.919271 -6.11221 0.274694 -0.0556602 -6.18044 -11.7439 -11.8673 -5.96977 -11.8254 -18.6481 -9.04779 -0.0 0.0 -0.0 4.03371 -28.8738 5.45936 -4.90146 -33.5017 88.5802 0.267473 -7.54779 0.0176431 -12.115 -0.580798 1.4331 1.542 4.83997 12.2581 -0.0 0.0 -0.0 -5.50503 -3.45162 9.99377 5.7576 15.7522 -57.7181 1.43491 35.4036 -0.458011 48.5463 0.866717 5.95771 -4.51712 -5.51791 28.533 0.0 0.0 0.0 27.5938 -21.3291 -7.69352 -31.7443 -0.0266863 4.80976 29.7032 27.2947 -4.13231 35.8787 -0.0 -0.0 -0.0 0.0 -0.0 -10.1511 -19.1904 -24.2424 -10.8659 -0.292671 -1.63938 35.7056 23.0339 5.07802 -37.579 0.0 0.0 0.0 0.0 0.0 
1062.06833784 731.948 -1515.85223761 175.025264709 56.4962732971 -159.905851333 0.361456 -0.764794 -6.17255 0.38256 -0.371243 -6.20853 0.431187 0.898369 -6.1546 0.378383 -0.0829586 -6.21902 -10.8436 -12.5606 -6.39291 -10.8931 -19.526 -9.49641 -0.0 0.0 -0.0 4.17433 -28.1702 5.84033 -5.61553 -33.6051 89.0663 0.202731 -5.73495 0.0101546 -12.6275 -0.611965 1.4908 0.76965 5.7525 7.46249 -0.0 0.0 -0.0 -5.49682 -3.32577 10.0069 6.05875 16.2681 -56.5701 1.42544 35.2247 -0.452536 47.894 0.822204 5.88706 -4.66605 -5.05078 29.9524 0.0 0.0 0.0 30.0461 -20.5112 -6.03092 -30.9349 0.00712154 4.69016 29.2209 26.9242 -4.06518 35.2671 -0.0 -0.0 -0.0 0.0 -0.0 -10.8941 -19.1421 -24.2542 -11.1721 -0.296386 -1.68621 34.3387 21.9426 4.88532 -38.1372 0.0 0.0 0.0 0.0 0.0 
1061.12633821 731.948 -1507.87097469 175.20948593 55.0287100615 -160.128668885 0.361456 -0.764794 -6.17255 0.38256 -0.371243 -6.20853 0.431187 0.898369 -6.1546 0.378383 -0.0829586 -6.21902 -10.8436 -12.5606 -6.39291 -10.8931 -19.526 -9.49641 -0.0 0.0 -0.0 4.17433 -28.1702 5.84033 -5.61553 -33.6051 89.0663 0.202731 -5.73495 0.0101546 -12.6275 -0.611965 1.4908 0.76965 5.7525 7.46249 -0.0 0.0 -0.0 -5.49682 -3.32577 10.0069 6.05875 16.2681 -56.5701 1.42544 35.2247 -0.452536 47.894 0.822204 5.88706 -4.66605 -5.05078 29.9524 0.0 0.0 0.0 30.0461 -20.5112 -6.03092 -30.9349 0.00712154 4.69016 29.2209 26.9242 -4.06518 35.2671 -0.0 -0.0 -0.0 0.0 -0.0 -10.8941 -19.1421 -24.2542 -11.1721 -0.296386 -1.68621 34.3387 21.9426 4.88532 -38.1372 0.0 0.0 0.0 0.0 0.0 
1048.90133495 725.942 -1503.76120633 175.899663753 53.8069058293 -161.431014604 0.296565 -0.718455 -5.82407 0.315356 -0.347049 -5.85783 0.358654 0.857888 -5.80523 0.311666 -0.0680684 -5.86767 -14.8887 -11.3655 -5.01211 -15.122 -18.7685 -8.52779 -0.0 0.0 -0.0 3.66701 -28.0643 4.75053 -8.71858 -33.7441 88.2681 0.203265 -5.74995 0.010208 -11.7182 -0.557025 1.38823 1.09724 8.72481 10.7693 -0.0 0.0 -0.0 -5.75403 -3.47355 10.4711 7.07672 17.3143 -55.7274 2.257 48.1836 -1.00932 45.3672 0.657458 5.60878 -4.41329 -3.17254 29.1609 0.0 0.0 0.0 34.5106 -19.9018 -3.98058 -26.0065 0.176194 3.95293 21.9919 27.7792 -3.18182 34.3178 -0.0 -0.0 -0.0 0.0 -0.0 -13.443 -20.4913 -25.5775 -6.59574 -0.214834 -0.988898 36.2444 25.2774 5.24734 -38.5775 0.0 0.0 0.0 0.0 0.0 
1043.42005527 722.313 -1499.77227724 176.639576832 53.0455026038 -162.970596662 0.309961 -0.709793 -5.38856 0.326031 -0.365983 -5.42267 0.367427 0.749057 -5.38326 0.327028 -0.109227 -5.43387 -14.9028 -10.7526 -2.6417 -15.2004 -18.9994 -6.10956 -0.0 0.0 -0.0 3.28447 -28.1763 3.90863 -10.1191 -34.1268 87.8015 0.250711 -7.07975 0.0155093 -11.685 -0.555053 1.38448 2.13915 12.066 18.8828 -0.0 0.0 -0.0 -5.60681 -3.49431 10.1809 8.05078 17.6095 -55.8442 2.65669 52.7614 -1.31786 44.6199 0.611116 5.52514 -4.13292 -2.20083 27.5999 0.0 0.0 0.0 36.1518 -19.606 -3.47564 -24.3874 0.217818 3.70794 19.4631 27.9167 -2.84799 33.5982 -0.0 -0.0 -0.0 0.0 -0.0 -13.903 -21.2675 -25.726 -3.36672 -0.123904 -0.501756 35.3898 25.6581 5.17862 -38.0603 0.0 0.0 0.0 0.0 0.0 
1033.93838652 724.956 -1493.46401764 178.03485794 52.8141516555 -164.627609102 0.372125 -0.549833 -5.46666 0.388718 -0.201396 -5.49048 0.414291 0.920363 -5.41676 0.373376 0.0546823 -5.49389 -13.8244 -9.63479 -1.35045 -14.0515 -17.5494 -4.33436 -0.0 0.0 -0.0 2.96639 -27.7994 3.25863 -11.177 -34.4993 87.9964 0.32453 -9.13308 0.0259205 -11.9041 -0.568128 1.40928 2.62772 16.2895 23.5079 -0.0 0.0 -0.0 -5.36883 -3.12599 9.80467 8.14514 17.6308 -55.082 3.05566 56.5379 -1.64345 42.9746 0.512958 5.33891 -3.78288 -1.37116 25.4495 0.0 0.0 0.0 37.4074 -19.5741 -3.29443 -22.6004 0.255695 3.43635 17.4009 27.8502 -2.56558 32.251 -0.0 -0.0 -0.0 0.0 -0.0 -14.3874 -22.5402 -25.8499 0.470449 0.0196578 0.0695171 34.8869 26.3506 5.16294 -37.2891 0.0 0.0 0.0 0.0 0.0 
